<svg width="26" height="27" viewBox="0 0 26 27" fill="none" xmlns="http://www.w3.org/2000/svg">
<path d="M18.0635 10.5226C18.1755 10.4181 18.2659 10.2925 18.3295 10.1531C18.393 10.0137 18.4285 9.86313 18.4339 9.70999C18.4392 9.55686 18.4144 9.40417 18.3607 9.26065C18.3071 9.11712 18.2257 8.98556 18.1212 8.87349C18.0167 8.76142 17.8912 8.67103 17.7518 8.60747C17.6123 8.54391 17.4618 8.50844 17.3086 8.50308C17.1555 8.49772 17.0028 8.52257 16.8593 8.57622C16.7158 8.62986 16.5842 8.71125 16.4721 8.81574L13.0585 11.9984L9.8758 8.58357C9.66284 8.36546 9.37298 8.23936 9.06823 8.23225C8.76348 8.22514 8.46805 8.3376 8.24516 8.54555C8.02226 8.7535 7.88962 9.04043 7.8756 9.34494C7.86157 9.64945 7.96729 9.94736 8.17013 10.1749L11.3528 13.5886L7.93797 16.7712C7.82194 16.8747 7.72774 17.0002 7.66092 17.1406C7.5941 17.2809 7.55599 17.4332 7.54884 17.5885C7.54169 17.7437 7.56564 17.8989 7.61929 18.0448C7.67293 18.1907 7.75519 18.3244 7.86122 18.438C7.96726 18.5517 8.09493 18.643 8.23675 18.7066C8.37858 18.7702 8.53168 18.8049 8.68707 18.8085C8.84247 18.8121 8.99702 18.7846 9.14165 18.7277C9.28629 18.6708 9.41808 18.5855 9.5293 18.4769L12.943 15.2954L16.1256 18.7091C16.2284 18.8272 16.3539 18.9235 16.4947 18.9922C16.6354 19.0608 16.7886 19.1004 16.945 19.1086C17.1014 19.1168 17.2578 19.0934 17.405 19.0398C17.5521 18.9863 17.687 18.9036 17.8015 18.7969C17.9161 18.6901 18.008 18.5613 18.0717 18.4183C18.1354 18.2752 18.1697 18.1208 18.1725 17.9642C18.1752 17.8076 18.1465 17.6521 18.0879 17.5069C18.0292 17.3616 17.942 17.2297 17.8313 17.1189L14.6498 13.7052L18.0635 10.5226Z" fill="#F24E1E"/>
<path fill-rule="evenodd" clip-rule="evenodd" d="M0.166748 13.6469C0.166748 6.55943 5.91258 0.813599 13.0001 0.813599C20.0876 0.813599 25.8334 6.55943 25.8334 13.6469C25.8334 20.7344 20.0876 26.4803 13.0001 26.4803C5.91258 26.4803 0.166748 20.7344 0.166748 13.6469ZM13.0001 24.1469C11.6212 24.1469 10.2558 23.8753 8.9819 23.3477C7.70799 22.82 6.55048 22.0466 5.57546 21.0716C4.60044 20.0965 3.82702 18.939 3.29935 17.6651C2.77167 16.3912 2.50008 15.0258 2.50008 13.6469C2.50008 12.2681 2.77167 10.9027 3.29935 9.62876C3.82702 8.35484 4.60044 7.19733 5.57546 6.22231C6.55048 5.2473 7.70799 4.47387 8.9819 3.9462C10.2558 3.41852 11.6212 3.14693 13.0001 3.14693C15.7849 3.14693 18.4556 4.25318 20.4247 6.22231C22.3938 8.19144 23.5001 10.8622 23.5001 13.6469C23.5001 16.4317 22.3938 19.1024 20.4247 21.0716C18.4556 23.0407 15.7849 24.1469 13.0001 24.1469Z" fill="#F24E1E"/>
</svg>
