<svg width="40" height="40" viewBox="0 0 40 40" fill="none" xmlns="http://www.w3.org/2000/svg">
<path d="M30.8333 22.4516H22.1667V31.1182H17.8333V22.4516H9.16667V18.1182H17.8333V9.45158H22.1667V18.1182H30.8333M35.1667 0.784912H4.83333C2.42833 0.784912 0.5 2.71325 0.5 5.11825V35.4516C0.5 36.6009 0.956546 37.7031 1.7692 38.5157C2.58186 39.3284 3.68406 39.7849 4.83333 39.7849H35.1667C36.3159 39.7849 37.4181 39.3284 38.2308 38.5157C39.0435 37.7031 39.5 36.6009 39.5 35.4516V5.11825C39.5 3.96897 39.0435 2.86677 38.2308 2.05412C37.4181 1.24146 36.3159 0.784912 35.1667 0.784912Z" fill="#FF3333"/>
</svg>
